<?xml version="1.0" encoding="UTF-8"?>
<svg version="1.1" xmlns="http://www.w3.org/2000/svg" width="128" height="128">
<path d="M0 0 C13.2 0 26.4 0 40 0 C40 0.66 40 1.32 40 2 C41.03125 2.28875 42.0625 2.5775 43.125 2.875 C44.41686854 3.24930396 45.70853633 3.62430148 47 4 C48.010625 4.28875 49.02125 4.5775 50.0625 4.875 C53.96842489 6.37088613 58.06616026 8.13232052 60 12 C60.639375 12.28875 61.27875 12.5775 61.9375 12.875 C64 14 64 14 64.8671875 15.76953125 C66.27064325 18.53288723 68.12414539 20.50054845 70.1875 22.8125 C83.19818898 38.46729674 85.40854605 56.26313597 84 76 C82.53211186 86.14116326 77.23980746 95.35431769 72 104 C71.505 105.485 71.505 105.485 71 107 C69.66666667 107.66666667 68.33333333 108.33333333 67 109 C65.34329588 110.90336809 65.34329588 110.90336809 64 113 C62 116 62 116 59 117 C58.0409375 117.99 58.0409375 117.99 57.0625 119 C54.85731569 121.13836055 53.88255079 121.34910144 51 122 C50.5875 122.495 50.175 122.99 49.75 123.5 C47.43502156 125.48426723 45.3002174 125.49205859 42.328125 125.69140625 C39.82618928 125.95331938 39.82618928 125.95331938 36.84838867 127.00708008 C32.83956544 128.0413936 29.19904184 128.2570545 25.09765625 128.1953125 C24.01380898 128.19106766 24.01380898 128.19106766 22.9080658 128.18673706 C20.62603384 128.17564386 18.34441103 128.15056088 16.0625 128.125 C14.50456301 128.11495611 12.94661979 128.10583274 11.38867188 128.09765625 C7.59229301 128.07574033 3.7962156 128.04128738 0 128 C0 127.34 0 126.68 0 126 C-1.03125 125.71125 -2.0625 125.4225 -3.125 125.125 C-4.41686854 124.75069604 -5.70853633 124.37569852 -7 124 C-8.010625 123.71125 -9.02125 123.4225 -10.0625 123.125 C-13.96842489 121.62911387 -18.06616026 119.86767948 -20 116 C-20.639375 115.71125 -21.27875 115.4225 -21.9375 115.125 C-24 114 -24 114 -24.8671875 112.23046875 C-26.27064325 109.46711277 -28.12414539 107.49945155 -30.1875 105.1875 C-43.22133689 89.5048511 -45.35442597 71.75868469 -44 52 C-43.38340392 47.36770458 -41.94848232 43.24284908 -40 39 C-39.25363281 37.3603125 -39.25363281 37.3603125 -38.4921875 35.6875 C-35.12942289 28.93068924 -31.19604206 23.50818062 -25.91796875 18.12109375 C-23.93282241 16.12452591 -23.93282241 16.12452591 -22.92578125 13.78515625 C-22 12 -22 12 -19 11 C-18.401875 10.38125 -17.80375 9.7625 -17.1875 9.125 C-12.97282741 5.03074662 -8.66598479 3.88137541 -3 3 C-2.01 2.34 -1.02 1.68 0 1 C0 0.67 0 0.34 0 0 Z " fill="#FE8E31" transform="translate(44,0)"/>
<path d="M0 0 C8.58535186 7.16566919 16.48822399 15.05193339 24.44624329 22.89780235 C26.9810693 25.39669306 29.52407631 27.88582791 32.08837891 30.35449219 C34.58681399 32.76009234 37.06244774 35.18709589 39.52362061 37.6307869 C40.91323198 38.99953385 42.3248935 40.34577803 43.73681641 41.6914978 C49.79616625 47.76926269 49.79616625 47.76926269 50.37838745 51.28468323 C49.91431249 55.58823948 48.13565764 59.40126161 46.125 63.1875 C45.61195312 64.17105469 45.09890625 65.15460938 44.5703125 66.16796875 C43.54041092 68.02537832 42.47348252 69.86283367 41.3671875 71.67578125 C39.87489576 74.02792272 39.87489576 74.02792272 39 77 C37.66666667 77.66666667 36.33333333 78.33333333 35 79 C33.34329588 80.90336809 33.34329588 80.90336809 32 83 C30 86 30 86 27 87 C26.0409375 87.99 26.0409375 87.99 25.0625 89 C22.85731569 91.13836055 21.88255079 91.34910144 19 92 C18.5875 92.495 18.175 92.99 17.75 93.5 C15.38242693 95.52934835 13.13407564 95.48506272 10.109375 95.75 C7.73337494 95.9689119 7.73337494 95.9689119 4.5 97.0625 C0.52841823 98.12631654 -2.95757611 98.86696786 -7 98 C-9.98997815 96.09106268 -12.28936136 93.64515059 -14.7109375 91.0703125 C-15.75225327 90.01201736 -15.75225327 90.01201736 -16.81460571 88.93234253 C-19.02094763 86.68135833 -21.19782817 84.40417414 -23.375 82.125 C-24.86141343 80.59843949 -26.3496766 79.07367775 -27.83984375 77.55078125 C-31.11004503 74.20202823 -34.36189228 70.83659136 -37.59848022 67.45535278 C-38.71959346 66.29117708 -39.85715269 65.14284731 -41 64 C-21.53 63.67 -2.06 63.34 18 63 C16.87116431 60.17791078 15.72535196 57.36206091 14.5234375 54.5703125 C11.84768119 47.41593773 11.17227052 39.60954317 10.0703125 32.08984375 C8.64798224 22.93928458 8.64798224 22.93928458 3 16 C-1.27452862 13.4751489 -5.96386657 13.57008332 -10.8125 13.375 C-11.99489258 13.31699219 -11.99489258 13.31699219 -13.20117188 13.2578125 C-15.1337538 13.16411156 -17.06684376 13.08099221 -19 13 C-19 11.35 -19 9.7 -19 8 C-17.57107422 8.01353516 -17.57107422 8.01353516 -16.11328125 8.02734375 C-9.09413014 8.15579609 -9.09413014 8.15579609 -2.95703125 5.375 C-1.4334638 3.26957719 -1.4334638 3.26957719 0 0 Z " fill="#ED7425" transform="translate(76,30)"/>
<path d="M0 0 C0.93328125 -0.01611328 1.8665625 -0.03222656 2.828125 -0.04882812 C8.15780058 -0.05260268 12.12274006 0.15826184 16.625 3.3125 C20.81964692 7.66345178 22.32103611 10.54754592 23.28515625 16.65234375 C23.40177109 17.33752579 23.51838593 18.02270782 23.63853455 18.72865295 C24.00650146 20.89988484 24.34928287 23.07395113 24.6875 25.25 C25.03123555 27.42199259 25.38089567 29.59232503 25.74717712 31.76063538 C26.07911995 33.72987765 26.3899238 35.70264919 26.69946289 37.67553711 C27.76073563 41.84588265 29.4130459 44.644813 31.625 48.3125 C31.625 48.9725 31.625 49.6325 31.625 50.3125 C11.165 50.3125 -9.295 50.3125 -30.375 50.3125 C-29.24553285 47.48883213 -28.09864423 44.67155878 -26.89453125 41.87890625 C-24.23156424 34.7615217 -23.58713343 26.9766397 -22.53320312 19.49023438 C-21.39842292 12.39690928 -20.28054342 6.85212323 -14.375 2.3125 C-9.78753799 -0.48053654 -5.22371153 -0.01788942 0 0 Z " fill="#FEFCFB" transform="translate(63.375,42.6875)"/>
<path d="M0 0 C2.82424288 2.19022918 4.41508603 3.83017207 6 7 C6.44408691 10.9079648 6.13704844 12.74548146 4.25 16.25 C1.0615021 20.14705298 -0.46231167 20.83225218 -5.4375 21.375 C-9.62750939 20.93394638 -11.093893 19.98913863 -14 17 C-16.28582634 13.73453379 -16.40058025 10.92568648 -16 7 C-12.54132553 -0.24674652 -7.49359153 -1.20710167 0 0 Z " fill="#C4D55C" transform="translate(69,58)"/>
<path d="M0 0 C1.52519276 0.08937803 3.04681929 0.24537146 4.5625 0.4375 C5.38878906 0.53933594 6.21507813 0.64117188 7.06640625 0.74609375 C7.70449219 0.82988281 8.34257813 0.91367187 9 1 C9.3750819 4.28196663 9.14087049 5.7646347 7.421875 8.63671875 C4.21794309 11.76313618 2.41611465 11.67178088 -2 11.625 C-3.8253125 11.64433594 -3.8253125 11.64433594 -5.6875 11.6640625 C-9 11 -9 11 -11.4375 8.7734375 C-13.0958353 5.82989234 -13.37853829 4.31221003 -13 1 C-11.71802734 1.01740234 -11.71802734 1.01740234 -10.41015625 1.03515625 C-8.75306641 1.04869141 -8.75306641 1.04869141 -7.0625 1.0625 C-5.40927734 1.07990234 -5.40927734 1.07990234 -3.72265625 1.09765625 C-1.08552366 1.31262571 -1.08552366 1.31262571 0 0 Z " fill="#F9F6F5" transform="translate(66,27)"/>
<path d="M0 0 C7.24101736 -0.61364554 7.24101736 -0.61364554 10.9375 2.375 C13.92217308 6.17367482 14.4656035 8.15772359 14 13 C12.49987532 15.5647293 11.10816535 17.89183465 9 20 C6.66702567 20.04092937 4.33294775 20.04241723 2 20 C2.66 19.67 3.32 19.34 4 19 C4 18.01 4 17.02 4 16 C4.66 15.67 5.32 15.34 6 15 C6.65555119 12.47266765 6.65555119 12.47266765 7 10 C4.525 9.01 4.525 9.01 2 8 C2 7.34 2 6.68 2 6 C3.32 6 4.64 6 6 6 C6 5.34 6 4.68 6 4 C5.34 4 4.68 4 4 4 C4 3.34 4 2.68 4 2 C2.68 1.34 1.36 0.68 0 0 Z " fill="#C3D45B" transform="translate(61,58)"/>
<path d="M0 0 C4.62 0 9.24 0 14 0 C14 1.65 14 3.3 14 5 C9.38 5 4.76 5 0 5 C0 3.35 0 1.7 0 0 Z " fill="#33465A" transform="translate(57,38)"/>
<path d="M0 0 C0 0.66 0 1.32 0 2 C0.66 2 1.32 2 2 2 C2 2.66 2 3.32 2 4 C0.68 4 -0.64 4 -2 4 C-0.36587557 5.70840281 0.86906094 6.93453047 3 8 C3 9.65 3 11.3 3 13 C2.01 13.33 1.02 13.66 0 14 C0 14.66 0 15.32 0 16 C-0.66 16 -1.32 16 -2 16 C-2 15.34 -2 14.68 -2 14 C-2.99 14 -3.98 14 -5 14 C-5 13.34 -5 12.68 -5 12 C-3.35 12 -1.7 12 0 12 C-1.63412443 10.29159719 -2.86906094 9.06546953 -5 8 C-5.36625971 3.48279689 -5.36625971 3.48279689 -3.625 1.1875 C-2 0 -2 0 0 0 Z " fill="#F9FBF0" transform="translate(65,60)"/>
<path d="M0 0 C0.99 0.495 0.99 0.495 2 1 C1.67 1.66 1.34 2.32 1 3 C0.67 2.01 0.34 1.02 0 0 Z " fill="#FF8E31" transform="translate(12,104)"/>
<path d="M0 0 C0.99 0.495 0.99 0.495 2 1 C1.67 1.66 1.34 2.32 1 3 C0.67 2.01 0.34 1.02 0 0 Z " fill="#FF8E31" transform="translate(114,21)"/>
<path d="M0 0 C0 3 0 3 0 3 Z " fill="#FF8E31" transform="translate(13,21)"/>
<path d="M0 0 C3 1 3 1 3 1 Z " fill="#EE7526" transform="translate(81,127)"/>
<path d="M0 0 C3 1 3 1 3 1 Z " fill="#EE7525" transform="translate(84,126)"/>
<path d="M0 0 C3 1 3 1 3 1 Z " fill="#FF8E31" transform="translate(41,126)"/>
<path d="" fill="#EC7324" transform="translate(0,0)"/>
<path d="" fill="#ED7425" transform="translate(0,0)"/>
<path d="" fill="#FF8E31" transform="translate(0,0)"/>
<path d="" fill="#EE7525" transform="translate(0,0)"/>
<path d="" fill="#FF8E31" transform="translate(0,0)"/>
<path d="" fill="#FF8E31" transform="translate(0,0)"/>
<path d="" fill="#FF8E31" transform="translate(0,0)"/>
<path d="" fill="#FF8E31" transform="translate(0,0)"/>
<path d="" fill="#FF8E31" transform="translate(0,0)"/>
<path d="M0 0 C3 1 3 1 3 1 Z " fill="#FF8E31" transform="translate(84,1)"/>
<path d="M0 0 C3 1 3 1 3 1 Z " fill="#FF8E31" transform="translate(41,1)"/>
<path d="M0 0 C2 1 2 1 2 1 Z " fill="#EE7525" transform="translate(87,125)"/>
<path d="M0 0 C2 1 2 1 2 1 Z " fill="#FF8E31" transform="translate(39,125)"/>
<path d="M0 0 C2 1 2 1 2 1 Z " fill="#FF8E31" transform="translate(37,124)"/>
<path d="M0 0 C2 1 2 1 2 1 Z " fill="#ED7425" transform="translate(95,121)"/>
<path d="" fill="#EE7625" transform="translate(0,0)"/>
<path d="" fill="#FF8E31" transform="translate(0,0)"/>
<path d="" fill="#EE7525" transform="translate(0,0)"/>
<path d="" fill="#FF8E31" transform="translate(0,0)"/>
<path d="" fill="#EB7224" transform="translate(0,0)"/>
<path d="" fill="#FF8E30" transform="translate(0,0)"/>
<path d="" fill="#F07927" transform="translate(0,0)"/>
<path d="" fill="#FF8D32" transform="translate(0,0)"/>
<path d="" fill="#FF8E31" transform="translate(0,0)"/>
<path d="" fill="#EE7526" transform="translate(0,0)"/>
<path d="" fill="#FF8E31" transform="translate(0,0)"/>
<path d="" fill="#FF8E31" transform="translate(0,0)"/>
<path d="" fill="#FF8E31" transform="translate(0,0)"/>
<path d="" fill="#FF8D31" transform="translate(0,0)"/>
<path d="" fill="#FF8E31" transform="translate(0,0)"/>
<path d="" fill="#FF8D31" transform="translate(0,0)"/>
<path d="" fill="#FF8D31" transform="translate(0,0)"/>
<path d="" fill="#FF8E31" transform="translate(0,0)"/>
<path d="" fill="#FF8E31" transform="translate(0,0)"/>
<path d="" fill="#FF8E31" transform="translate(0,0)"/>
<path d="" fill="#FF8E31" transform="translate(0,0)"/>
<path d="" fill="#FF8E31" transform="translate(0,0)"/>
<path d="" fill="#FF8E31" transform="translate(0,0)"/>
<path d="M0 0 C2 1 2 1 2 1 Z " fill="#FF8E31" transform="translate(89,3)"/>
<path d="M0 0 C2 1 2 1 2 1 Z " fill="#FF8E31" transform="translate(37,3)"/>
<path d="M0 0 C2 1 2 1 2 1 Z " fill="#FF8E31" transform="translate(87,2)"/>
<path d="M0 0 C2 1 2 1 2 1 Z " fill="#FF8E31" transform="translate(39,2)"/>
<path d="" fill="#EE7626" transform="translate(0,0)"/>
<path d="" fill="#FF8E31" transform="translate(0,0)"/>
<path d="" fill="#EF7727" transform="translate(0,0)"/>
<path d="" fill="#FF8E31" transform="translate(0,0)"/>
<path d="" fill="#EF7726" transform="translate(0,0)"/>
<path d="" fill="#FF8E31" transform="translate(0,0)"/>
<path d="" fill="#EF7726" transform="translate(0,0)"/>
<path d="" fill="#FF8E31" transform="translate(0,0)"/>
<path d="" fill="#EF7726" transform="translate(0,0)"/>
<path d="" fill="#FF8E31" transform="translate(0,0)"/>
<path d="" fill="#EF7726" transform="translate(0,0)"/>
<path d="" fill="#FF8E31" transform="translate(0,0)"/>
<path d="" fill="#F07827" transform="translate(0,0)"/>
<path d="" fill="#FF8E31" transform="translate(0,0)"/>
<path d="" fill="#EE7425" transform="translate(0,0)"/>
<path d="" fill="#FF8E31" transform="translate(0,0)"/>
<path d="" fill="#EF7726" transform="translate(0,0)"/>
<path d="" fill="#FF8E31" transform="translate(0,0)"/>
<path d="" fill="#EE7726" transform="translate(0,0)"/>
<path d="" fill="#FF8E31" transform="translate(0,0)"/>
<path d="" fill="#EE7626" transform="translate(0,0)"/>
<path d="" fill="#FF8E31" transform="translate(0,0)"/>
<path d="" fill="#FF8E31" transform="translate(0,0)"/>
<path d="" fill="#FF8E31" transform="translate(0,0)"/>
<path d="" fill="#FF8E31" transform="translate(0,0)"/>
<path d="" fill="#FF8E31" transform="translate(0,0)"/>
<path d="" fill="#FF8E31" transform="translate(0,0)"/>
<path d="" fill="#FF8E31" transform="translate(0,0)"/>
<path d="" fill="#FF8E31" transform="translate(0,0)"/>
<path d="" fill="#FF8E31" transform="translate(0,0)"/>
<path d="" fill="#FF8E31" transform="translate(0,0)"/>
<path d="" fill="#FF8E31" transform="translate(0,0)"/>
<path d="" fill="#FF8E31" transform="translate(0,0)"/>
<path d="" fill="#FF8E31" transform="translate(0,0)"/>
<path d="" fill="#FF8E31" transform="translate(0,0)"/>
<path d="" fill="#FF8E31" transform="translate(0,0)"/>
<path d="" fill="#FF8E31" transform="translate(0,0)"/>
<path d="" fill="#FF8E31" transform="translate(0,0)"/>
<path d="" fill="#FF8E31" transform="translate(0,0)"/>
<path d="" fill="#FF8E31" transform="translate(0,0)"/>
<path d="" fill="#FF8E31" transform="translate(0,0)"/>
<path d="" fill="#FF8E31" transform="translate(0,0)"/>
<path d="" fill="#FF8E31" transform="translate(0,0)"/>
<path d="" fill="#FF8E31" transform="translate(0,0)"/>
</svg>
